<?xml version="1.0" standalone="no"?>
<svg viewBox="0 0 200 200" xmlns="http://www.w3.org/2000/svg">
  <path fill="#A7F0BA" d="M46.9,-70.1C59.6,-64.8,67.9,-49.8,74.8,-34.3C81.7,-18.8,87.3,-2.7,82.4,9.9C77.6,22.6,62.5,31.8,51.3,44C40,56.2,32.7,71.3,21.5,75.6C10.4,79.9,-4.6,73.4,-19.6,68.3C-34.6,63.2,-49.5,59.5,-61.5,50.5C-73.5,41.6,-82.6,27.4,-82.3,13.3C-82,-0.7,-72.2,-14.6,-64.2,-28.1C-56.2,-41.6,-49.9,-54.7,-39.4,-61.1C-29,-67.4,-14.5,-67.1,1.3,-69.1C17.1,-71.1,34.2,-75.5,46.9,-70.1Z" transform="translate(100 100)" />
</svg>
