<svg version="1.1" id="Layer_1" xmlns="http://www.w3.org/2000/svg" xmlns:xlink="http://www.w3.org/1999/xlink" x="0px" y="0px" viewBox="0 0 500 500" style="width: 178px;" xml:space="preserve" data-imageid="recycling-1-17" imageName="Recycling 1" class="illustrations_image">
<style type="text/css">
	.st0_recycling-1-17{fill:#F3AD00;}
	.st1_recycling-1-17{opacity:0.32;fill:url(#SVGID_1_);enable-background:new    ;}
	.st2_recycling-1-17{opacity:0.32;fill:url(#SVGID_00000135684767508306030930000006330850749578830470_);enable-background:new    ;}
	.st3_recycling-1-17{opacity:0.32;fill:url(#SVGID_00000068649261352172740830000000357914684135578283_);enable-background:new    ;}
	.st4_recycling-1-17{opacity:0.32;fill:url(#SVGID_00000181785798309806799270000004205657039932233129_);enable-background:new    ;}
	.st5_recycling-1-17{fill:#E27144;}
	.st6_recycling-1-17{fill:#FDEDCB;}
	.st7_recycling-1-17{fill:#9B4726;}
	.st8_recycling-1-17{opacity:0.5;fill:#9B4726;enable-background:new    ;}
	.st9_recycling-1-17{fill:#FFC6B2;}
	.st10_recycling-1-17{fill:#68E1FD;}
	.st11_recycling-1-17{fill:#FFB39C;}
	.st12_recycling-1-17{opacity:0.5;enable-background:new    ;}
	.st13_recycling-1-17{opacity:0.17;fill:#FDEDCB;enable-background:new    ;}
	.st14_recycling-1-17{opacity:0.36;enable-background:new    ;}
	.st15_recycling-1-17{opacity:8.000000e-02;}
	.st16_recycling-1-17{opacity:0.37;enable-background:new    ;}
	.st17_recycling-1-17{opacity:8.000000e-02;enable-background:new    ;}
	.st18_recycling-1-17{fill:#52AF45;}
	.st19_recycling-1-17{fill:#0D5B23;}
</style>
<path id="Base_recycling-1-17" class="st0_recycling-1-17" d="M27.9,309.5l222.7,129.7c1.9,1.1,4.4,1.1,6.3,0L472,315c3-1.7,4-5.6,2.3-8.6c-0.6-1-1.4-1.8-2.3-2.3&#10;&#9;L246,173.6c-2-1.1-4.4-1.1-6.4,0l-211.8,125c-3,1.8-4,5.6-2.2,8.6c0,0,0,0,0,0C26.2,308.2,27,309,27.9,309.5z"/>
<g id="Shadow_recycling-1-17">
	
		<linearGradient id="SVGID_1_-recycling-1-17" gradientUnits="userSpaceOnUse" x1="206.6478" y1="-1714.5905" x2="225.0578" y2="-1729.5204" gradientTransform="matrix(1 0 0 1 0 2038.04)">
		<stop offset="0" style="stop-color:#000000;stop-opacity:3.000000e-02"/>
		<stop offset="0.97" style="stop-color:#000000"/>
	</linearGradient>
	<path class="st1_recycling-1-17" d="M217.2,284.4c-8.4-5.8,19,13.1,11.6,6l-51,27.7l33,18.5l61.1-33C268.5,300.8,220.7,286.7,217.2,284.4z"/>
	
		<linearGradient id="SVGID_00000123403512977241605750000003162022385781023382_-recycling-1-17" gradientUnits="userSpaceOnUse" x1="242.8552" y1="-1624.1813" x2="261.2652" y2="-1639.1212" gradientTransform="matrix(1 0 0 1 0 2038.04)">
		<stop offset="0" style="stop-color:#000000;stop-opacity:3.000000e-02"/>
		<stop offset="0.97" style="stop-color:#000000"/>
	</linearGradient>
	<path style="opacity:0.32;fill:url(#SVGID_00000123403512977241605750000003162022385781023382_);enable-background:new    ;" d="&#10;&#9;&#9;M253.4,374.8c-8.4-5.8,19,13.1,11.6,6l-51,27.7l33,18.5l61.1-33C304.7,391.2,256.9,377.1,253.4,374.8z"/>
	
		<linearGradient id="SVGID_00000026127434246034389040000011240320721416107699_-recycling-1-17" gradientUnits="userSpaceOnUse" x1="349.5321" y1="-1691.4149" x2="367.9721" y2="-1706.3649" gradientTransform="matrix(1 0 0 1 0 2038.04)">
		<stop offset="0" style="stop-color:#000000;stop-opacity:3.000000e-02"/>
		<stop offset="0.97" style="stop-color:#000000"/>
	</linearGradient>
	<path style="opacity:0.32;fill:url(#SVGID_00000026127434246034389040000011240320721416107699_);enable-background:new    ;" d="&#10;&#9;&#9;M402.9,318.2c-14.8,5.3-39,9.7-54.4,13c-0.1,0.2-0.3,0.3-0.5,0.4c-4,2-8.8,2-12.8,0l-15.6,8.4l33,18.5l61.1-33&#10;&#9;&#9;C412.4,324.4,412.9,321.5,402.9,318.2z"/>
	
		<linearGradient id="SVGID_00000152261132646218381160000002438714595753791667_-recycling-1-17" gradientUnits="userSpaceOnUse" x1="126.4085" y1="-1685.582" x2="152.3884" y2="-1706.6619" gradientTransform="matrix(1 0 0 1 0 2038.04)">
		<stop offset="0" style="stop-color:#000000;stop-opacity:3.000000e-02"/>
		<stop offset="0.97" style="stop-color:#000000"/>
	</linearGradient>
	<path style="opacity:0.32;fill:url(#SVGID_00000152261132646218381160000002438714595753791667_);enable-background:new    ;" d="&#10;&#9;&#9;M166.6,314.6c-8.4-5.8-17.1-11.2-24.5-18.3l-64.2,38.8l69.4,38.6l76.1-43.4C220,327.7,170.1,317,166.6,314.6z"/>
</g>
<g id="Box_Close_recycling-1-17">
	<path class="st5_recycling-1-17" d="M257.3,311v-43.7l39.1-21.8v43.3L257.3,311z"/>
	<path class="st5_recycling-1-17" d="M257.3,267.3l-38-21.8c0,0-1.1,44,0,44.7s38,20.8,38,20.8V267.3z"/>
	<polygon class="st5_recycling-1-17" points="219.3,245.5 257.3,222.2 296.4,245.5 257.3,267.3 &#9;"/>
	<polygon class="st6_recycling-1-17" points="233.8,236.6 273.4,258.4 273.4,281.1 284.7,275.4 284.7,252 245.2,229.7 &#9;"/>
</g>
<g id="Box_Open_recycling-1-17">
	<path class="st5_recycling-1-17" d="M278.5,409.1v-30.3l-27.1-15.1v30L278.5,409.1z"/>
	<path class="st5_recycling-1-17" d="M278.5,378.9l26.4-15.1c0,0,0.7,30.5,0,31s-26.4,14.4-26.4,14.4V378.9z"/>
	<polygon class="st7_recycling-1-17" points="304.9,363.8 278.5,347.6 251.4,363.8 278.5,378.9 &#9;"/>
	<polygon class="st5_recycling-1-17" points="251.4,363.8 241.6,346.8 269.4,330.5 278.5,347.6 &#9;"/>
	<polygon class="st5_recycling-1-17" points="304.9,363.8 312,348.5 282.9,364.4 278.5,378.9 &#9;"/>
	<path class="st8_recycling-1-17" d="M278.5,409.1v-30.3l-27.1-15.1v30L278.5,409.1z"/>
	<polygon class="st8_recycling-1-17" points="304.9,363.8 312,348.5 282.9,364.4 278.5,378.9 &#9;"/>
</g>
<g id="Character_recycling-1-17">
	<path class="st9_recycling-1-17" d="M212,99.8c0,0-4.9,21.9-5.9,24.4s-8.7,15.3-8.7,15.3s-7.3,4-5.6,4.9c1.1,0.5,2.4,0.5,3.6,0&#10;&#9;&#9;c0,0-2.1,8.2-1.1,10.1s5,2.9,8,1.6s3-10.4,3.5-11.7s15.9-27.8,17.4-44.6S212,99.8,212,99.8z"/>
	<path class="st10_recycling-1-17 targetColor" d="M210.6,89.1c0,0-4.8,5.4-4.9,23.8c0,0,13.8,6.1,16.6,3l3.4-17.3" style="fill: rgb(104, 225, 253);"/>
	<path class="st9_recycling-1-17" d="M244.5,164.4c0,0,3,24.6,4.7,30.8s3.2,45.8,3.2,45.8s5.3,3.8,9.8,0c0,0,2.4-32,1.1-40.5s0-42.2,0-42.2"/>
	<path class="st9_recycling-1-17" d="M227.1,157.3c0,0-0.6,18.1,0,24.1s3.2,43.9,3.2,43.9c2.5,2.2,6.2,2.2,8.8,0c0,0,2.9-18.8,2.6-22.4&#10;&#9;&#9;s-0.9-48.8-0.9-48.8"/>
	<path class="st0_recycling-1-17" d="M219.6,69.7c0,0.1,29.2,4.6,27.5,14.1S232.9,90,232.9,90l-14.6-17.2"/>
	<path class="st6_recycling-1-17" d="M244.5,255.1c-0.9,1.9-0.5,4.2,1,5.7c2.5,2.7,5.8,1.4,8.6,0c2.8-1.4,10.7-8.4,9.6-10.2s-1.5-9.6-1.5-9.6"/>
	<path class="st10_recycling-1-17 targetColor" d="M252.2,237.9c0,0-1.3,7.3-3.1,9.6s-6.1,8.1-4.7,9.6c1.4,1.5,2.4-3,4.7-1.7s1.6,4.5,3.2,3.9s9.4-6.8,10.2-10.7&#10;&#9;&#9;s-1.1-10.8-1.1-10.8" style="fill: rgb(104, 225, 253);"/>
	<path class="st6_recycling-1-17" d="M216.8,235.9c0,0-0.3,4.3,3.6,5.2s8.8-1.6,11-2.6s10.2-7.8,10.2-7.8l-0.9-9.4"/>
	<path class="st10_recycling-1-17 targetColor" d="M230,220.6c0,0-2.4,5.9-6.6,8s-7.6,6.4-6.6,7.2s3-2,4.1-1.3s1.1,4.2,2.4,3.4s4.2,1.4,8.1-1.3s2.7-3.8,6-5&#10;&#9;&#9;s3.3-10.4,3.3-10.4S232.4,223.1,230,220.6z" style="fill: rgb(104, 225, 253);"/>
	<path class="st7_recycling-1-17" d="M226.4,124.4c-2,5.9-3.1,12-3.4,18.2c-0.6,11,3.9,75.2,3.9,75.2c6.6,2.4,13.7,2.8,20.5,1.1v14.7&#10;&#9;&#9;c0,0,11.3,3.7,23.6-4.2c0,0-1.4-97.5-21.4-116.5"/>
	<path class="st10_recycling-1-17 targetColor" d="M243.9,118.9c2.1-1.8,4-3.8,5.6-6.1c-2.2-5.6-4.7-11-7.6-16.2c-4.4-7.1-8.7-15.2-17.4-17.3&#10;&#9;&#9;c-3.5,1.5-6.8,3.4-9.9,5.6c-1.6,1.1-3,2.4-4.1,4c-0.2,7,0.4,11.4,4.6,16.7s7,13.9,9.8,18.5C231.1,125.6,238,122.9,243.9,118.9z" style="fill: rgb(104, 225, 253);"/>
	<path class="st11_recycling-1-17" d="M218.6,76.8l3.7,4.6c0,0-2,4.3-5.9,4.8l-2.4-2.8"/>
	<path class="st0_recycling-1-17" d="M210.4,80.1c-7.1,6-10.6-0.7-10.6-0.7c-9.8-12.3,5.8-18.9,5.8-18.9s12.2-4.4,14.2,12.9"/>
	<path class="st9_recycling-1-17" d="M198.1,73.8c0,0,11.1,15.8,17.3,10.7s2.2-10.4,2.2-10.4s-5.6-10.7-12.4-9S198.1,73.8,198.1,73.8z"/>
	<path class="st0_recycling-1-17" d="M198.1,73.8c0,0,7.6,3.2,12.1-0.3s8.4,3.2,8.4,3.2c1.9-3.6,1.5-8-0.9-11.3c-2.4-3.5-11.1-6.1-15.5-2.8&#10;&#9;&#9;C197.7,66,194.9,71.3,198.1,73.8z"/>
	<path class="st12_recycling-1-17" d="M242.3,147.2c-0.1-0.9-1.5-0.9-1.4,0c2.6,24.6,4.7,49.3,6.2,73.9c0,0.4,0.3,0.7,0.7,0.7&#10;&#9;&#9;c0.4,0,0.7-0.3,0.7-0.7C247,196.5,244.9,171.8,242.3,147.2z"/>
	<path class="st10_recycling-1-17 targetColor" d="M243.8,213.8v95.6c0,5.6-3,10.8-7.8,13.7l-47.7,28c-5.3,3.2-12,3.1-17.3-0.1l-52.4-30.6V208.1" style="fill: rgb(104, 225, 253);"/>
	<path class="st13_recycling-1-17" d="M186.5,211.1v140.7c0.6-0.3,1.2-0.6,1.8-0.9l47.7-28c4.9-2.8,7.8-8.1,7.8-13.7v-95.5L186.5,211.1z"/>
	<path class="st14_recycling-1-17" d="M118.6,212.7v9.5l58.5,31.5c4.6,2.9,10.5,2.9,15.2,0c8.3-4.9,51.6-31.5,51.6-31.5v-8.4"/>
	<path class="st10_recycling-1-17 targetColor" d="M113.4,209.8l65.8,36.8c3.9,2.2,8.7,2.1,12.6-0.2l57.4-34.4c4.1-2.4,5.4-7.7,2.9-11.7c-0.8-1.3-1.8-2.3-3.1-3&#10;&#9;&#9;l-57.6-32.6c-4.9-2.8-10.9-2.7-15.7,0.2l-62.4,37c-2.2,1.3-2.9,4.2-1.6,6.4C112.1,208.8,112.7,209.4,113.4,209.8L113.4,209.8z" style="fill: rgb(104, 225, 253);"/>
	<polygon class="st10_recycling-1-17 targetColor" points="111,205.4 111,197.3 114.8,202.2 &#9;" style="fill: rgb(104, 225, 253);"/>
	<polygon class="st10_recycling-1-17 targetColor" points="253.2,196.4 253.2,204.8 249.8,202.1 &#9;" style="fill: rgb(104, 225, 253);"/>
	<g class="st15_recycling-1-17">
		<path d="M113.4,209.8l65.8,36.8c3.9,2.2,8.7,2.1,12.6-0.2l57.4-34.4c4.1-2.4,5.4-7.7,2.9-11.7c-0.8-1.3-1.8-2.3-3.1-3l-57.6-32.6&#10;&#9;&#9;&#9;c-4.9-2.8-10.9-2.7-15.7,0.2l-62.4,37c-2.2,1.3-2.9,4.2-1.6,6.4C112.1,208.8,112.7,209.4,113.4,209.8L113.4,209.8z"/>
		<polygon points="111,205.4 111,197.3 114.8,202.2 &#9;&#9;"/>
		<polygon points="253.2,196.4 253.2,204.8 249.8,202.1 &#9;&#9;"/>
	</g>
	<path class="st10_recycling-1-17 targetColor" d="M113.4,201.4l65.8,36.8c3.9,2.2,8.7,2.1,12.6-0.2l57.4-34.4c4.1-2.4,5.4-7.7,3-11.7c-0.8-1.3-1.8-2.3-3.1-3.1&#10;&#9;&#9;l-57.6-32.6c-4.9-2.8-10.9-2.7-15.7,0.1l-62.4,37c-2.2,1.3-2.9,4.2-1.5,6.4C112.1,200.4,112.7,201,113.4,201.4L113.4,201.4z" style="fill: rgb(104, 225, 253);"/>
	<path class="st16_recycling-1-17" d="M125.5,199.7l54.1,30.3c3.2,1.8,7.2,1.8,10.4-0.2l47.2-28.3c3.3-1.9,4.5-6.2,2.5-9.6c-0.6-1.1-1.6-2-2.7-2.6&#10;&#9;&#9;l-47.3-26.8c-4-2.3-8.9-2.2-12.9,0.1l-51.4,30.5c-1.8,1.1-2.4,3.4-1.3,5.3C124.5,198.9,124.9,199.4,125.5,199.7L125.5,199.7z"/>
	<path class="st10_recycling-1-17 targetColor" d="M113.3,193.4L96,121.6c-1-4.1,0.9-8.3,4.6-10.3l53-28.3c2.9-1.5,6.4-0.5,8,2.4c0,0,0,0,0,0&#10;&#9;&#9;c0.2,0.4,0.4,0.9,0.5,1.3l16.8,68.2L113.3,193.4z" style="fill: rgb(104, 225, 253);"/>
	<path class="st17_recycling-1-17" d="M113.3,193.4L96,121.6c-1-4.1,0.9-8.3,4.6-10.3l53-28.3c2.9-1.5,6.4-0.5,8,2.4c0,0,0,0,0,0&#10;&#9;&#9;c0.2,0.4,0.4,0.9,0.5,1.3l16.8,68.2L113.3,193.4z"/>
	<path class="st16_recycling-1-17" d="M184,160.9c-2.5-0.1-5,0.5-7.1,1.8l-51.3,30.4c-1.8,1.1-2.4,3.4-1.3,5.2c0,0,0,0,0,0c0.3,0.6,0.8,1.1,1.4,1.4&#10;&#9;&#9;l54.1,30.3c1.3,0.7,2.8,1.2,4.3,1.3L184,160.9z"/>
	
		<ellipse transform="matrix(0.9232 -0.3843 0.3843 0.9232 -113.7608 71.2679)" class="st7_recycling-1-17" cx="121.4" cy="320.3" rx="12.1" ry="15.4"/>
	<polyline class="st7_recycling-1-17" points="109.5,308.5 116.7,305.7 117.1,309.9 &#9;"/>
	<polygon points="121.3,336.9 127.4,334.5 122.8,333.8 &#9;"/>
	
		<ellipse transform="matrix(0.9232 -0.3843 0.3843 0.9232 -115.1031 69.2562)" class="st5_recycling-1-17" cx="115.7" cy="322.6" rx="12.1" ry="15.4"/>
	
		<ellipse transform="matrix(0.9232 -0.3843 0.3843 0.9232 -114.9526 69.1537)" class="st6_recycling-1-17" cx="115.6" cy="322.2" rx="8.8" ry="11.2"/>
	<path class="st18_recycling-1-17" d="M181.5,103.5c0,0-1.8,5.2,3.2,7.1c0.7,0.3,0.2,2.7,0.1,3.2c-0.7,6.1-1.9,12.1-3.6,18&#10;&#9;&#9;c-1.6,5.6-3.6,11.4-3.3,17.2c0.3,4.5,0.7,9,1.2,13.5c1,8.8,2.2,17.5,3.5,26.2c0.3,2.1,0.6,4.1,1,6.1c0.5,3.1,2.6,6.9,18.1,5.6&#10;&#9;&#9;s16.8-11.7,16.8-11.7c-0.5-4.9-1.1-9.8-1.7-14.7c-1.1-8.9-2.3-17.9-4-26.7c-0.8-4-0.5-4.2-2.2-8.1c-0.6-1.5-1.3-3-2.2-4.3&#10;&#9;&#9;c-1.4-2.7-7.7-15.8-8.4-18.7c-0.6-2.7-1.2-5.3-1.8-8c0,0,3.8-2.6,0.4-7.1"/>
	<path class="st6_recycling-1-17" d="M182.3,149.9l3,21.2c0.5,3.3,6.7,2.4,6.2-0.9l-3-21.2C188,145.7,181.8,146.6,182.3,149.9z"/>
	<path class="st6_recycling-1-17" d="M189.4,175.2c-4,0.6-3.3,5.7,0.7,5.2S193.4,174.6,189.4,175.2z"/>
	<path class="st9_recycling-1-17" d="M225.1,102c0,0-4.9,21.8-5.9,24.4s-8.7,15.3-8.7,15.3s-7.3,4-5.6,4.9c1.1,0.5,2.4,0.5,3.6,0&#10;&#9;&#9;c0,0-2.1,8.2-1.1,10.1s5,2.9,8,1.6s3-10.4,3.5-11.8s15.8-27.8,17.4-44.6S225.1,102,225.1,102z"/>
	<path class="st10_recycling-1-17 targetColor" d="M222.5,92.2c0,0-2.1-13.1,6-12.8s10.8,8.3,12.1,12.8s-4.6,22.2-4.6,22.2l-16.4-6.9L222.5,92.2z" style="fill: rgb(104, 225, 253);"/>
	<path class="st16_recycling-1-17" d="M228.7,124.5l4-11.6l3.3,1.4l3.9-14v21C239.9,121.3,233.8,126.3,228.7,124.5z"/>
	<path class="st16_recycling-1-17" d="M221.7,113.8c-1.5-5.1-2.7-10.4-3.6-15.6c-0.1-0.9-1.5-0.5-1.4,0.4c0.9,5.3,2.1,10.5,3.6,15.6&#10;&#9;&#9;c0.1,0.4,0.5,0.6,0.9,0.5C221.6,114.5,221.8,114.2,221.7,113.8z"/>
	<path class="st6_recycling-1-17" d="M225.4,261c0,0-5.6-6.5-9.6-4.9c-4,1.6-8.4,16.8-8.4,16.8l8.2,3c0,0,0.9-10.9,3.3-10.9s6.5,4.2,6.5,4.2&#10;&#9;&#9;l-2.8,4.7l8.6-2.4V261l-2.3,4L225.4,261z"/>
	<path class="st6_recycling-1-17" d="M229.3,276.1c0,0,3.6,4.4,2.7,7.4s-5.9,3.2-5.9,3.2l-0.7-5l-4.2,6.5l6.1,8.3v-4.4c0,0,7.4-1.5,8.4-5.1&#10;&#9;&#9;s0.2-13.5,0.2-13.5L229.3,276.1z"/>
	<path class="st6_recycling-1-17" d="M210.4,280c0,0-8.6,7.9-8,7.4h4.3c0,0-2.7,10,2.3,12.3c3.2,1.4,10.8-3,10.8-3.5s-0.9-8.4-0.9-8.4s-5,5.7-7,5&#10;&#9;&#9;s-0.8-5.6-0.8-5.6l4.5-0.7L210.4,280z"/>
	<ellipse transform="matrix(0.9902 -0.1397 0.1397 0.9902 -12.4243 27.5504)" class="st7_recycling-1-17" cx="190" cy="102.3" rx="8.6" ry="3.6"/>
	<ellipse transform="matrix(0.9902 -0.1397 0.1397 0.9902 -12.4243 27.5504)" class="st12_recycling-1-17" cx="190" cy="102.3" rx="8.6" ry="3.6"/>
</g>
<g id="Plant_recycling-1-17">
	<path class="st5_recycling-1-17" d="M413.7,325v-74.6h-16.2v75.3C403.1,327.3,409,327.5,413.7,325z"/>
	<path class="st12_recycling-1-17" d="M407.2,250.6V327c2.3-0.1,4.5-0.8,6.5-1.8v-74.6H407.2z"/>
	<path class="st18_recycling-1-17" d="M428.2,257.4c10.1-0.5,23.1-4.1,19.3-15.4c-2.2-6.7-9.1-12.5-13.5-17.8s-3.4-8.8-8.4-14&#10;&#9;&#9;c4.2,0.2,10.3-0.6,11.3-4.8c0.9-3.6-18.6-25.9-27.1-35c-1.9-2.1-5.1-2.3-7.3-0.5c-10.1,8-35.8,29.4-32.2,35.5&#10;&#9;&#9;c2.2,3.7,6.5,5,10.5,5.3c-9.2,9.3-19.8,20.9-20.9,33.2c-0.9,10.7,10,12.1,20.2,11.6c-7,8.6-26.2,33-21.8,40.4&#10;&#9;&#9;c2.3,3.9,9.8,5.2,14.1,6.1c9.5,1.9,19.2,2.9,29,2.8c9.7-0.1,19.6-1.1,28.8-4.3c4.9-1.7,10.2-4.1,14-7.7c4.5-4.2,2-8.7-0.9-13&#10;&#9;&#9;C438.2,272.4,433.2,264.9,428.2,257.4z"/>
	<path class="st19_recycling-1-17" d="M425.6,210.2c0,0-12.3-0.8-20.9-0.6l43.4,35.7c0,0,1.2-4.2-6.5-12.6S425.6,210.2,425.6,210.2z"/>
	<path class="st19_recycling-1-17" d="M428.2,257.4H403l41.2,35.4c0,0,4.5-3.3,1.8-8.1S428.2,257.4,428.2,257.4z"/>
</g>
</svg>