<svg xmlns="http://www.w3.org/2000/svg"  viewBox="0 0 100 100" width="50px" height="50px"><circle cx="78" cy="14" r="1" fill="#f1bc19"/><circle cx="50" cy="50" r="38" fill="#f9dbd2"/><circle cx="84" cy="16" r="4" fill="#f1bc19"/><circle cx="14" cy="26" r="2" fill="#ee3e54"/><circle cx="78" cy="77" r="2" fill="#fbcd59"/><circle cx="17" cy="78" r="4" fill="#fbcd59"/><circle cx="24" cy="83" r="2" fill="#ee3e54"/><circle cx="66.483" cy="78.517" r="2.483" fill="#fff"/><circle cx="16" cy="48" r="1" fill="#fff"/><circle cx="86" cy="31" r="1" fill="#f1bc19"/><circle cx="80" cy="66" r="2" fill="#fff"/><path fill="#00a5a5" d="M23.738,55.024l-0.121-0.276c-0.545-1.582-0.436-3.078,0.344-4.544l3.747-5.438l-1.701-1.059 c-0.154-0.096-0.151-0.238-0.136-0.314s0.069-0.209,0.249-0.237c0,0,9.54-1.467,9.543-1.467c0.163,0,0.271,0.077,0.315,0.19 l3.735,9.715c0.039,0.101,0.03,0.189-0.026,0.271c-0.059,0.086-0.158,0.141-0.253,0.141l0,0c-0.053,0-0.104-0.016-0.159-0.05 l-1.715-1.065l-5.618,8.327l-5.584,0.656L23.738,55.024z"/><path fill="#472b29" d="M35.761,42.381h0.005H35.761 M35.442,42.43l3.192,8.303l-0.13-0.081l-1.145-0.712l-0.754,1.118 l-5.061,7.502l-4.794,0.564l-2.369-4.385l-0.109-0.245c-0.459-1.371-0.369-2.646,0.274-3.894l3.326-4.834l0.831-1.208 l-1.245-0.774l-0.16-0.1L35.442,42.43 M35.7,40.986c-0.051,0-0.102,0.004-0.153,0.012l-9.533,1.467 c-0.917,0.141-1.164,1.347-0.376,1.837l1.078,0.67l-3.373,4.903c-0.888,1.669-0.981,3.381-0.378,5.13 c0.052,0.116,0.105,0.235,0.157,0.352l2.846,5.268l6.375-0.75l5.42-8.034l1.143,0.71c0.173,0.107,0.354,0.155,0.528,0.155 c0.647,0,1.205-0.658,0.934-1.363l-3.735-9.716C36.483,41.236,36.108,40.986,35.7,40.986L35.7,40.986z"/><g><path fill="#00a5a5" d="M35.2,71.3c-1.714,0-3.276-0.94-4.078-2.455l-6.158-11.632c1.458,0.879,3.059,1.487,5.328,1.487H46 c0.166,0,0.3,0.135,0.3,0.3v12c0,0.165-0.134,0.3-0.3,0.3H35.2z"/><path fill="#472b29" d="M26.581,58.772c1.06,0.389,2.261,0.627,3.71,0.627H45.6v11.2H35.2c-1.454,0-2.779-0.798-3.46-2.083 L26.581,58.772 M23,55l7.503,14.172C31.424,70.912,33.231,72,35.2,72H46c0.552,0,1-0.448,1-1V59c0-0.552-0.448-1-1-1H30.292 C27,58,25.207,56.621,23,55L23,55z"/></g><g><path fill="#00a5a5" d="M56.352,73.512c-0.09,0-0.163-0.036-0.225-0.112l-6.025-7.441 c-0.088-0.109-0.088-0.268-0.001-0.377l6.63-8.271c0.063-0.077,0.136-0.114,0.226-0.114c0.085,0,0.306,0.054,0.309,0.298 l0.032,2.41l9.697-0.052l3.362,4.468l-2.869,4.708l-0.196,0.269c-1.073,1.243-2.42,1.902-4.08,1.967l-6.527,0.006l-0.023,1.944 C56.657,73.459,56.437,73.512,56.352,73.512z"/><path fill="#472b29" d="M57.277,57.749h0.005H57.277 M56.579,58.619l0.008,0.6l0.018,1.389l1.389-0.007l8.652-0.046 l2.866,3.807l-2.594,4.256l-0.085,0.119l-0.071,0.099c-0.964,1.101-2.127,1.667-3.552,1.729l-5.835,0.005l-1.383,0.001 l-0.016,1.383l-0.002,0.145l-5.125-6.329L56.579,58.619 M56.956,56.496c-0.279,0-0.563,0.117-0.771,0.376l-6.63,8.271 c-0.294,0.367-0.293,0.889,0.003,1.255l6.026,7.441c0.208,0.257,0.49,0.373,0.768,0.373c0.508,0,1.002-0.385,1.009-0.991 l0.015-1.253l5.863-0.005c1.889-0.074,3.415-0.856,4.622-2.259c0.074-0.104,0.15-0.209,0.225-0.313l3.116-5.113l-3.86-5.128 l-9.355,0.05l-0.022-1.715C57.957,56.88,57.463,56.496,56.956,56.496L56.956,56.496z"/></g><g><path fill="#00a5a5" d="M69.178,66.366c0.023-1.702-0.257-3.391-1.4-5.351l-7.915-13.569 c-0.055-0.094-0.043-0.183-0.031-0.228c0.013-0.044,0.046-0.128,0.14-0.183l10.365-6.046c0.047-0.027,0.098-0.041,0.15-0.041 c0.108,0,0.205,0.056,0.26,0.148l5.442,9.329c0.862,1.48,0.837,3.305-0.066,4.761L69.178,66.366z"/><path fill="#472b29" d="M70.689,41.595h0.005H70.689 M70.343,41.796l5.24,8.984c0.733,1.256,0.711,2.803-0.056,4.038 l-5.818,9.366c-0.198-1.111-0.597-2.269-1.327-3.521l-7.713-13.223L70.343,41.796 M70.486,40.249 c-0.171,0-0.344,0.044-0.503,0.136l-10.365,6.046c-0.477,0.278-0.638,0.891-0.36,1.368l7.915,13.569 c1.659,2.843,1.371,5.086,1.083,7.81l8.461-13.621c1.039-1.672,1.068-3.782,0.076-5.482l-5.442-9.329 C71.165,40.427,70.83,40.249,70.486,40.249L70.486,40.249z"/></g><g><path fill="#00a5a5" d="M52.869,39.041c-0.186-0.022-0.241-0.157-0.257-0.236c-0.017-0.079-0.02-0.226,0.143-0.32 l1.756-1.021l-4.613-8.335l2.035-5.235l5.512-0.041l0.33,0.024c1.624,0.258,2.894,1.056,3.823,2.432l2.948,5.319l1.715-0.997 c0.052-0.03,0.102-0.045,0.152-0.045c0.093,0,0.19,0.054,0.249,0.136c0.056,0.079,0.067,0.169,0.033,0.268l-3.173,9.107 c-0.042,0.12-0.156,0.202-0.283,0.202L52.869,39.041z"/><path fill="#472b29" d="M57.397,24.553l0.22,0.015l0.046,0.003c1.433,0.238,2.521,0.92,3.322,2.082l2.602,4.69l0.693,1.249 l1.235-0.718l0.163-0.095l-2.711,7.783l-8.831-1.072l0.133-0.077l1.185-0.689l-0.664-1.199l-4.122-7.449l1.744-4.486 L57.397,24.553 M66.613,31.235h0.005H66.613 M57.439,23.153l-5.987,0.044l-2.326,5.983l4.44,8.022l-1.163,0.676 c-0.829,0.482-0.57,1.742,0.382,1.857l10.334,1.254c0.041,0.005,0.081,0.007,0.121,0.007c0.421,0,0.802-0.265,0.944-0.671 l3.173-9.108c0.242-0.696-0.306-1.333-0.944-1.333c-0.166,0-0.338,0.043-0.503,0.139l-1.098,0.638l-2.633-4.746 c-1.058-1.567-2.527-2.451-4.355-2.738C57.696,23.17,57.567,23.161,57.439,23.153L57.439,23.153z"/></g><g><path fill="#00a5a5" d="M43.498,41.954c-0.049,0-0.096-0.012-0.14-0.035l-10.601-5.625 c-0.096-0.051-0.132-0.133-0.146-0.177c-0.014-0.045-0.029-0.133,0.021-0.229l5.063-9.54c0.802-1.513,2.364-2.452,4.076-2.452 l13.166,0.013c-1.46,0.876-2.748,2.004-3.812,4.009l-7.362,13.876C43.701,41.912,43.585,41.954,43.498,41.954z"/><path fill="#472b29" d="M41.775,24.596l11.026,0.011c-0.84,0.753-1.614,1.703-2.294,2.983l-7.175,13.522l-9.894-5.25 l4.875-9.187c0.681-1.283,2.006-2.08,3.459-2.08H41.775 M41.773,23.196c-1.967,0-3.774,1.086-4.696,2.824l-5.062,9.541 c-0.259,0.488-0.073,1.093,0.415,1.352l10.6,5.625c0.149,0.079,0.31,0.117,0.468,0.117c0.358,0,0.705-0.193,0.884-0.531 l7.363-13.876c1.543-2.908,3.601-3.845,6.068-5.035l-16.036-0.015C41.775,23.196,41.774,23.196,41.773,23.196L41.773,23.196z"/></g><g><path fill="#472b29" d="M72,61.666c-0.001,0-0.003,0-0.004,0c-0.139-0.002-0.248-0.116-0.246-0.254 c0.026-1.635-0.889-3.297-1.558-4.511l-2.127-3.858c-0.066-0.121-0.022-0.273,0.098-0.34c0.123-0.068,0.272-0.022,0.34,0.098 l2.128,3.859c0.695,1.263,1.647,2.992,1.619,4.76C72.248,61.557,72.137,61.666,72,61.666z"/></g><g><path fill="#472b29" d="M67.406,51.594c-0.088,0-0.174-0.047-0.219-0.13l-2.563-4.656c-0.066-0.12-0.022-0.272,0.099-0.339 c0.12-0.067,0.273-0.023,0.339,0.099l2.563,4.656c0.066,0.12,0.022,0.272-0.099,0.339C67.488,51.584,67.447,51.594,67.406,51.594z"/></g><g><path fill="#472b29" d="M32.229,63.78c-1.381,0-3.106-0.072-4.484-0.85c-0.12-0.067-0.163-0.221-0.095-0.341 c0.067-0.121,0.221-0.162,0.341-0.095c1.425,0.804,3.321,0.79,4.71,0.783l3.796-0.028c0,0,0.001,0,0.002,0 c0.137,0,0.249,0.11,0.25,0.248s-0.11,0.251-0.248,0.252l-3.797,0.028C32.552,63.779,32.393,63.78,32.229,63.78z"/></g><g><path fill="#472b29" d="M38.5,63.78c-0.137,0-0.249-0.111-0.25-0.248c-0.001-0.139,0.11-0.251,0.249-0.252l5-0.03 c0,0,0.001,0,0.001,0c0.137,0,0.249,0.111,0.25,0.248c0.001,0.139-0.11,0.251-0.249,0.252l-5,0.03 C38.501,63.78,38.5,63.78,38.5,63.78z"/></g><g><path fill="#472b29" d="M43.556,31.339c-0.038,0-0.077-0.009-0.113-0.027c-0.124-0.063-0.173-0.213-0.11-0.336l1.72-3.387 c0.654-1.285,1.55-3.046,3.03-4.016c0.114-0.075,0.27-0.045,0.346,0.072c0.076,0.115,0.043,0.271-0.072,0.346 c-1.369,0.897-2.23,2.589-2.859,3.825l-1.719,3.386C43.735,31.289,43.647,31.339,43.556,31.339z"/></g><g><path fill="#472b29" d="M40.342,37.558c-0.039,0-0.077-0.009-0.113-0.027c-0.123-0.063-0.172-0.213-0.109-0.336l2.269-4.456 c0.063-0.124,0.214-0.172,0.336-0.109c0.123,0.063,0.172,0.213,0.109,0.336l-2.269,4.456 C40.521,37.508,40.433,37.558,40.342,37.558z"/></g></svg>